<?xml version="1.0" standalone="no"?>
<!DOCTYPE svg PUBLIC "-//W3C//DTD SVG 20010904//EN"
 "http://www.w3.org/TR/2001/REC-SVG-20010904/DTD/svg10.dtd">
<svg version="1.0" xmlns="http://www.w3.org/2000/svg"
 width="680.000000pt" height="418.000000pt" viewBox="0 0 680.000000 418.000000"
 preserveAspectRatio="xMidYMid meet">

<g transform="translate(0.000000,418.000000) scale(0.100000,-0.100000)"
fill="#000000" stroke="none">
<path d="M2666 3518 c-14 -20 -16 -169 -16 -1401 0 -873 4 -1385 10 -1396 14
-26 37 -33 55 -15 13 14 15 172 15 1405 0 939 -3 1397 -10 1410 -14 25 -35 24
-54 -3z"/>
<path d="M4120 3070 l0 -430 45 0 45 0 0 209 0 208 40 27 c72 48 169 51 213 7
21 -21 22 -31 25 -236 l3 -215 50 0 49 0 0 190 c0 210 -10 276 -47 321 -57 67
-170 79 -269 29 -32 -16 -60 -30 -61 -30 -2 0 -3 79 -3 175 l0 175 -45 0 -45
0 0 -430z"/>
<path d="M2961 3343 c10 -38 60 -213 111 -390 l92 -323 56 0 56 0 89 310 c50
170 93 310 96 310 3 0 46 -138 95 -307 l90 -308 56 -3 c47 -2 57 0 62 15 3 10
50 178 106 373 56 195 103 363 106 373 5 15 -2 17 -45 17 l-49 0 -14 -47 c-8
-27 -47 -170 -88 -320 -41 -150 -78 -269 -81 -265 -3 4 -45 148 -94 320 l-87
312 -57 0 -58 0 -88 -315 c-49 -173 -92 -315 -95 -315 -3 0 -39 120 -80 268
-40 147 -79 288 -87 315 l-14 47 -49 0 -49 0 20 -67z"/>
<path d="M5710 3254 l0 -155 43 3 42 3 3 153 3 152 -46 0 -45 0 0 -156z"/>
<path d="M1895 3376 c-40 -18 -257 -174 -820 -591 -243 -179 -433 -334 -507
-414 -38 -39 -68 -76 -68 -82 0 -5 26 9 58 31 31 22 368 255 747 518 397 276
691 486 693 496 5 23 -26 56 -52 56 -12 -1 -34 -7 -51 -14z"/>
<path d="M5338 3293 l-3 -98 -37 -3 c-37 -3 -38 -4 -38 -42 0 -38 1 -39 38
-42 l37 -3 5 -212 c5 -199 6 -214 26 -233 27 -28 90 -41 145 -32 43 7 44 8 47
50 l3 43 -44 -6 c-38 -6 -48 -4 -66 14 -20 20 -21 32 -21 201 l0 180 65 0 65
0 0 40 0 39 -62 3 -63 3 -3 98 -3 97 -44 0 -44 0 -3 -97z"/>
<path d="M6095 3211 c-51 -13 -94 -40 -109 -69 -56 -110 -5 -212 124 -248 106
-29 137 -44 149 -71 15 -33 -2 -88 -31 -104 -43 -23 -183 -8 -250 27 l-28 15
0 -50 0 -49 53 -19 c76 -26 218 -25 272 3 60 31 85 74 85 147 0 102 -45 146
-180 177 -30 7 -67 19 -81 26 -46 23 -52 72 -14 109 20 21 34 25 83 25 32 0
81 -7 108 -15 67 -20 66 -21 62 27 l-3 43 -60 17 c-64 17 -130 21 -180 9z"/>
<path d="M4850 3161 l0 -38 69 -6 c39 -3 80 -11 91 -17 23 -13 50 -66 50 -101
0 -18 -4 -20 -22 -14 -76 24 -134 28 -189 12 -111 -33 -160 -125 -128 -240 34
-122 190 -169 304 -92 l35 24 0 -24 c0 -23 3 -25 50 -25 l50 0 0 163 c0 194
-12 288 -42 329 -33 47 -89 68 -185 68 l-83 0 0 -39z m183 -250 c26 -10 27
-14 27 -74 0 -69 -7 -80 -67 -111 -89 -45 -183 -1 -183 86 0 79 54 122 145
114 28 -2 62 -9 78 -15z"/>
<path d="M2215 2916 c-529 -178 -1394 -548 -1505 -645 l-35 -31 80 29 c44 16
436 156 870 312 435 155 795 290 802 298 26 33 5 91 -33 91 -10 0 -91 -24
-179 -54z"/>
<path d="M3010 2079 l0 -390 48 3 47 3 5 298 5 298 189 -301 188 -301 52 3 51
3 3 388 2 387 -50 0 -50 0 -2 -302 -3 -303 -190 302 -190 303 -52 0 -53 0 0
-391z"/>
<path d="M5100 2080 l0 -390 45 0 45 0 0 390 0 390 -45 0 -45 0 0 -390z"/>
<path d="M4490 2345 l0 -95 -35 0 c-35 0 -35 0 -35 -45 0 -45 0 -45 35 -45
l35 0 1 -187 c0 -217 7 -250 59 -275 35 -18 95 -23 138 -12 18 5 22 13 22 45
l0 39 -48 0 c-26 0 -53 5 -60 12 -8 8 -12 66 -12 195 l0 183 65 0 65 0 0 45 0
45 -65 0 -65 0 0 95 0 95 -50 0 -50 0 0 -95z"/>
<path d="M3933 2254 c-100 -36 -163 -143 -163 -279 0 -183 100 -294 266 -295
172 0 271 93 282 267 7 109 -23 198 -87 255 -27 24 -67 50 -89 56 -53 16 -157
14 -209 -4z m199 -90 c52 -27 88 -103 88 -187 0 -144 -83 -231 -204 -213 -91
14 -148 93 -148 206 0 110 55 198 132 213 35 7 100 -3 132 -19z"/>
<path d="M5599 2256 c-20 -7 -53 -23 -73 -35 l-36 -23 0 31 c0 30 -1 31 -45
31 l-45 0 0 -285 0 -285 45 0 45 0 2 212 3 212 45 31 c39 26 54 30 112 30 114
0 128 -35 128 -316 l0 -169 45 0 45 0 0 195 c0 227 -9 282 -53 329 -50 52
-141 70 -218 42z"/>
<path d="M1231 2249 c-14 -5 -46 -25 -73 -44 -42 -30 -56 -35 -106 -35 -84 0
-146 -22 -216 -76 -52 -41 -78 -53 -180 -81 -65 -18 -120 -34 -122 -36 -2 -1
1 -8 5 -16 7 -10 23 -11 87 -1 170 25 204 32 204 45 0 37 115 114 171 115 38
0 62 -31 54 -69 -4 -20 -3 -31 5 -31 6 0 48 38 94 84 91 92 117 104 203 92 94
-13 120 -44 88 -107 -16 -31 -16 -32 1 -24 206 83 265 78 345 -29 36 -48 37
-48 100 -50 35 -1 108 -6 162 -11 114 -9 124 0 40 38 -76 33 -128 47 -181 47
-39 0 -51 6 -110 60 -75 68 -119 81 -206 61 -49 -11 -51 -11 -100 23 -28 19
-64 40 -79 45 -35 13 -153 13 -186 0z"/>
<path d="M330 1846 c0 -198 84 -449 220 -651 64 -97 222 -255 310 -313 l65
-42 458 0 458 0 183 183 c162 161 187 191 224 263 77 150 134 357 148 537 l7
87 -1037 0 -1036 0 0 -64z"/>
<path d="M3010 1135 l0 -385 50 0 50 0 2 307 3 308 115 -163 c96 -135 119
-162 140 -162 21 0 44 27 140 162 l115 163 3 -308 2 -307 50 0 50 0 0 385 0
385 -55 0 -54 0 -122 -170 c-66 -93 -125 -170 -129 -170 -4 0 -63 77 -129 170
l-122 170 -54 0 -55 0 0 -385z"/>
<path d="M4097 1319 c-55 -13 -90 -33 -126 -74 -53 -60 -65 -99 -65 -210 0
-90 2 -106 27 -158 48 -98 123 -141 247 -142 81 0 181 23 195 45 8 13 -16 70
-30 70 -7 0 -29 -7 -48 -15 -51 -21 -164 -20 -207 3 -40 21 -90 107 -90 154
l0 28 196 0 197 0 -6 78 c-6 91 -20 125 -76 175 -58 53 -125 67 -214 46z m141
-95 c28 -19 52 -65 52 -99 l0 -25 -140 0 c-155 0 -153 -1 -126 65 21 49 68 75
136 75 34 0 64 -6 78 -16z"/>
<path d="M4616 1315 c-22 -8 -53 -27 -70 -44 -25 -25 -30 -40 -34 -89 -7 -104
38 -150 188 -191 46 -13 82 -29 93 -42 25 -30 22 -75 -8 -104 -21 -22 -33 -25
-92 -25 -44 0 -92 9 -136 24 l-68 23 3 -46 c3 -45 4 -46 53 -64 122 -45 265
-29 323 37 36 41 46 82 37 142 -12 80 -66 119 -212 153 -28 7 -59 21 -69 32
-24 26 -21 80 7 101 27 22 136 24 194 3 55 -20 55 -20 55 28 l0 43 -64 17
c-77 20 -147 21 -200 2z"/>
<path d="M5147 1318 c-54 -15 -102 -66 -111 -117 -16 -102 34 -163 162 -201
105 -31 119 -38 132 -70 16 -39 -9 -97 -45 -106 -45 -11 -170 3 -219 25 l-46
20 0 -48 0 -48 58 -19 c85 -28 213 -26 270 4 59 31 82 73 82 145 0 103 -36
140 -172 176 -43 12 -80 21 -82 21 -3 0 -14 10 -26 22 -27 29 -25 64 5 93 21
21 33 25 88 25 36 0 84 -7 107 -15 60 -21 62 -20 58 27 -3 42 -4 43 -58 60
-61 19 -145 21 -203 6z"/>
</g>
</svg>
